<?xml version="1.0" encoding="UTF-8"?>
<svg width="200px" height="57px" viewBox="0 0 200 57" version="1.1" xmlns="http://www.w3.org/2000/svg" xmlns:xlink="http://www.w3.org/1999/xlink">
    <title>Group@3x</title>
    <g id="Page-1" stroke="none" stroke-width="1" fill="none" fill-rule="evenodd">
        <g id="Mobile-Copy-12" transform="translate(-60.000000, -55.000000)">
            <g id="Group" transform="translate(60.000000, 55.000000)">
                <g id="Group-3" transform="translate(0.000000, 11.000000)" fill="#E5155C" fill-rule="nonzero">
                    <g id="noun_Love_1033573">
                        <path d="M41.296875,3.61463415 C39,1.34390244 35.953125,0.185365854 32.90625,0.185365854 C29.859375,0.185365854 26.859375,1.34390244 24.515625,3.61463415 L22.546875,5.56097561 L20.578125,3.61463415 C18.28125,1.34390244 15.234375,0.185365854 12.1875,0.185365854 C7.359375,0.185365854 2.578125,3.05853659 0.65625,8.75853659 C-0.609375,12.604878 0.46875,16.8682927 3.375,19.7414634 L21.09375,37.2585366 C21.890625,38.0463415 23.109375,38.0463415 23.90625,37.2585366 L41.203125,20.1585366 C45.9375,15.6170732 45.9375,8.15609756 41.296875,3.61463415 Z" id="Shape"></path>
                    </g>
                </g>
                <text id="Ciyona" font-family="Lato-Black, Lato" font-size="48" font-weight="800" letter-spacing="-1.29999995" fill="#484848">
                    <tspan x="55.2239999" y="47">Ciyona</tspan>
                </text>
            </g>
        </g>
    </g>
</svg>