<?xml version="1.0" encoding="UTF-8"?>
<svg width="69px" height="10px" viewBox="0 0 69 10" version="1.1" xmlns="http://www.w3.org/2000/svg" xmlns:xlink="http://www.w3.org/1999/xlink">
    <title>Shoppibye</title>
    <g id="Page-1" stroke="none" stroke-width="1" fill="none" fill-rule="evenodd">
        <g id="t" transform="translate(-1138.000000, -545.000000)" fill-rule="nonzero">
            <g id="Shoppibye" transform="translate(1138.340909, 545.153409)">
                <path d="M4.92613636,2.84659091 C4.90340909,2.5625 4.79758523,2.34090909 4.60866477,2.18181818 C4.41974432,2.02272727 4.13352273,1.94318182 3.75,1.94318182 C3.50568182,1.94318182 3.30610795,1.97230114 3.15127841,2.03053977 C2.99644886,2.08877841 2.88210227,2.16761364 2.80823864,2.26704545 C2.734375,2.36647727 2.69602273,2.48011364 2.69318182,2.60795455 C2.6875,2.71306818 2.70667614,2.80752841 2.75071023,2.89133523 C2.79474432,2.97514205 2.86505682,3.05042614 2.96164773,3.1171875 C3.05823864,3.18394886 3.18181818,3.24431818 3.33238636,3.29829545 C3.48295455,3.35227273 3.66193182,3.40056818 3.86931818,3.44318182 L4.58522727,3.59659091 C5.06818182,3.69886364 5.48153409,3.83380682 5.82528409,4.00142045 C6.16903409,4.16903409 6.45028409,4.36576705 6.66903409,4.59161932 C6.88778409,4.81747159 7.04900568,5.07102273 7.15269886,5.35227273 C7.25639205,5.63352273 7.30965909,5.94034091 7.3125,6.27272727 C7.30965909,6.84659091 7.16619318,7.33238636 6.88210227,7.73011364 C6.59801136,8.12784091 6.19247159,8.43039773 5.66548295,8.63778409 C5.13849432,8.84517045 4.50568182,8.94886364 3.76704545,8.94886364 C3.00852273,8.94886364 2.34730114,8.83664773 1.78338068,8.61221591 C1.21946023,8.38778409 0.781960227,8.04190341 0.470880682,7.57457386 C0.159801136,7.10724432 0.00284090909,6.50852273 0,5.77840909 L2.25,5.77840909 C2.26420455,6.04545455 2.33096591,6.26988636 2.45028409,6.45170455 C2.56960227,6.63352273 2.73792614,6.77130682 2.95525568,6.86505682 C3.17258523,6.95880682 3.43181818,7.00568182 3.73295455,7.00568182 C3.98579545,7.00568182 4.19744318,6.97443182 4.36789773,6.91193182 C4.53835227,6.84943182 4.66761364,6.76278409 4.75568182,6.65198864 C4.84375,6.54119318 4.88920455,6.41477273 4.89204545,6.27272727 C4.88920455,6.13920455 4.84588068,6.02201705 4.76207386,5.92116477 C4.67826705,5.8203125 4.54119318,5.72940341 4.35085227,5.6484375 C4.16051136,5.56747159 3.90340909,5.49147727 3.57954545,5.42045455 L2.71022727,5.23295455 C1.9375,5.06534091 1.32883523,4.78480114 0.884232955,4.39133523 C0.439630682,3.99786932 0.21875,3.46022727 0.221590909,2.77840909 C0.21875,2.22443182 0.3671875,1.73934659 0.666903409,1.32315341 C0.966619318,0.906960227 1.3828125,0.582386364 1.91548295,0.349431818 C2.44815341,0.116477273 3.05965909,0 3.75,0 C4.45454545,0 5.06392045,0.117897727 5.578125,0.353693182 C6.09232955,0.589488636 6.48934659,0.921164773 6.76917614,1.34872159 C7.04900568,1.77627841 7.19034091,2.27556818 7.19318182,2.84659091 L4.92613636,2.84659091 Z" id="Path" fill="#E12255"></path>
                <polygon id="Path" fill="#E12255" points="8.21590909 8.84659091 8.21590909 0.119318182 10.5852273 0.119318182 10.5852273 3.52840909 13.7215909 3.52840909 13.7215909 0.119318182 16.0909091 0.119318182 16.0909091 8.84659091 13.7215909 8.84659091 13.7215909 5.4375 10.5852273 5.4375 10.5852273 8.84659091"></polygon>
                <path d="M25.6704545,4.48295455 C25.6704545,5.45454545 25.4815341,6.2734375 25.1036932,6.93963068 C24.7258523,7.60582386 24.2159091,8.11008523 23.5738636,8.45241477 C22.9318182,8.79474432 22.2159091,8.96590909 21.4261364,8.96590909 C20.6306818,8.96590909 19.912642,8.79332386 19.272017,8.44815341 C18.631392,8.10298295 18.1228693,7.59730114 17.7464489,6.93110795 C17.3700284,6.26491477 17.1818182,5.44886364 17.1818182,4.48295455 C17.1818182,3.51136364 17.3700284,2.69247159 17.7464489,2.02627841 C18.1228693,1.36008523 18.631392,0.855823864 19.272017,0.513494318 C19.912642,0.171164773 20.6306818,0 21.4261364,0 C22.2159091,0 22.9318182,0.171164773 23.5738636,0.513494318 C24.2159091,0.855823864 24.7258523,1.36008523 25.1036932,2.02627841 C25.4815341,2.69247159 25.6704545,3.51136364 25.6704545,4.48295455 Z M23.2329545,4.48295455 C23.2329545,3.96022727 23.1640625,3.51917614 23.0262784,3.15980114 C22.8884943,2.80042614 22.6853693,2.52769886 22.4169034,2.34161932 C22.1484375,2.15553977 21.8181818,2.0625 21.4261364,2.0625 C21.0340909,2.0625 20.7038352,2.15553977 20.4353693,2.34161932 C20.1669034,2.52769886 19.9637784,2.80042614 19.8259943,3.15980114 C19.6882102,3.51917614 19.6193182,3.96022727 19.6193182,4.48295455 C19.6193182,5.00568182 19.6882102,5.44673295 19.8259943,5.80610795 C19.9637784,6.16548295 20.1669034,6.43821023 20.4353693,6.62428977 C20.7038352,6.81036932 21.0340909,6.90340909 21.4261364,6.90340909 C21.8181818,6.90340909 22.1484375,6.81036932 22.4169034,6.62428977 C22.6853693,6.43821023 22.8884943,6.16548295 23.0262784,5.80610795 C23.1640625,5.44673295 23.2329545,5.00568182 23.2329545,4.48295455 Z" id="Shape" fill="#E12255"></path>
                <path d="M26.7613636,8.84659091 L26.7613636,0.119318182 L30.5284091,0.119318182 C31.1761364,0.119318182 31.7428977,0.247159091 32.2286932,0.502840909 C32.7144886,0.758522727 33.0923295,1.11789773 33.3622159,1.58096591 C33.6321023,2.04403409 33.7670455,2.58522727 33.7670455,3.20454545 C33.7670455,3.82954545 33.6285511,4.37073864 33.3515625,4.828125 C33.0745739,5.28551136 32.6867898,5.63778409 32.1882102,5.88494318 C31.6896307,6.13210227 31.1079545,6.25568182 30.4431818,6.25568182 L28.1931818,6.25568182 L28.1931818,4.41477273 L29.9659091,4.41477273 C30.2443182,4.41477273 30.4822443,4.36576705 30.6796875,4.26775568 C30.8771307,4.16974432 31.0291193,4.02982955 31.1356534,3.84801136 C31.2421875,3.66619318 31.2954545,3.45170455 31.2954545,3.20454545 C31.2954545,2.95454545 31.2421875,2.74076705 31.1356534,2.56321023 C31.0291193,2.38565341 30.8771307,2.24928977 30.6796875,2.15411932 C30.4822443,2.05894886 30.2443182,2.01136364 29.9659091,2.01136364 L29.1306818,2.01136364 L29.1306818,8.84659091 L26.7613636,8.84659091 Z" id="Path" fill="#E12255"></path>
                <path d="M34.6363636,8.84659091 L34.6363636,0.119318182 L38.4034091,0.119318182 C39.0511364,0.119318182 39.6178977,0.247159091 40.1036932,0.502840909 C40.5894886,0.758522727 40.9673295,1.11789773 41.2372159,1.58096591 C41.5071023,2.04403409 41.6420455,2.58522727 41.6420455,3.20454545 C41.6420455,3.82954545 41.5035511,4.37073864 41.2265625,4.828125 C40.9495739,5.28551136 40.5617898,5.63778409 40.0632102,5.88494318 C39.5646307,6.13210227 38.9829545,6.25568182 38.3181818,6.25568182 L36.0681818,6.25568182 L36.0681818,4.41477273 L37.8409091,4.41477273 C38.1193182,4.41477273 38.3572443,4.36576705 38.5546875,4.26775568 C38.7521307,4.16974432 38.9041193,4.02982955 39.0106534,3.84801136 C39.1171875,3.66619318 39.1704545,3.45170455 39.1704545,3.20454545 C39.1704545,2.95454545 39.1171875,2.74076705 39.0106534,2.56321023 C38.9041193,2.38565341 38.7521307,2.24928977 38.5546875,2.15411932 C38.3572443,2.05894886 38.1193182,2.01136364 37.8409091,2.01136364 L37.0056818,2.01136364 L37.0056818,8.84659091 L34.6363636,8.84659091 Z" id="Path" fill="#E12255"></path>
                <polygon id="Path" fill="#E12255" points="44.8806818 0.119318182 44.8806818 8.84659091 42.5113636 8.84659091 42.5113636 0.119318182"></polygon>
                <path d="M46.0056818,8.84659091 L46.0056818,0.119318182 L49.7897727,0.119318182 C50.4545455,0.119318182 51.0134943,0.208806818 51.4666193,0.387784091 C51.9197443,0.566761364 52.2620739,0.819602273 52.493608,1.14630682 C52.725142,1.47301136 52.8409091,1.85795455 52.8409091,2.30113636 C52.8409091,2.62215909 52.7705966,2.91477273 52.6299716,3.17897727 C52.4893466,3.44318182 52.2926136,3.6640625 52.0397727,3.84161932 C51.7869318,4.01917614 51.4914773,4.14204545 51.1534091,4.21022727 L51.1534091,4.29545455 C51.5284091,4.30965909 51.8693182,4.40411932 52.1761364,4.57883523 C52.4829545,4.75355114 52.7272727,4.99360795 52.9090909,5.29900568 C53.0909091,5.60440341 53.1818182,5.96306818 53.1818182,6.375 C53.1818182,6.85227273 53.0575284,7.27698864 52.8089489,7.64914773 C52.5603693,8.02130682 52.2073864,8.31392045 51.75,8.52698864 C51.2926136,8.74005682 50.7471591,8.84659091 50.1136364,8.84659091 L46.0056818,8.84659091 Z M48.375,6.95454545 L49.4829545,6.95454545 C49.8806818,6.95454545 50.1789773,6.87997159 50.3778409,6.73082386 C50.5767045,6.58167614 50.6761364,6.36079545 50.6761364,6.06818182 C50.6761364,5.86363636 50.6292614,5.69034091 50.5355114,5.54829545 C50.4417614,5.40625 50.3089489,5.29829545 50.1370739,5.22443182 C49.9651989,5.15056818 49.7585227,5.11363636 49.5170455,5.11363636 L48.375,5.11363636 L48.375,6.95454545 Z M48.375,3.64772727 L49.3465909,3.64772727 C49.5539773,3.64772727 49.7372159,3.61505682 49.8963068,3.54971591 C50.0553977,3.484375 50.1796875,3.38991477 50.2691761,3.26633523 C50.3586648,3.14275568 50.4034091,2.99147727 50.4034091,2.8125 C50.4034091,2.54261364 50.3068182,2.3359375 50.1136364,2.19247159 C49.9204545,2.04900568 49.6761364,1.97727273 49.3806818,1.97727273 L48.375,1.97727273 L48.375,3.64772727 Z" id="Shape" fill="#102342"></path>
                <polygon id="Path" fill="#102342" points="52.6590909 0.119318182 55.3011364 0.119318182 57.0056818 3.66477273 57.0738636 3.66477273 58.7784091 0.119318182 61.4204545 0.119318182 58.2159091 6.10227273 58.2159091 8.84659091 55.8636364 8.84659091 55.8636364 6.10227273"></polygon>
                <polygon id="Path" fill="#102342" points="62.1875 8.84659091 62.1875 0.119318182 68.4772727 0.119318182 68.4772727 2.02840909 64.5568182 2.02840909 64.5568182 3.52840909 68.1534091 3.52840909 68.1534091 5.4375 64.5568182 5.4375 64.5568182 6.9375 68.4602273 6.9375 68.4602273 8.84659091"></polygon>
            </g>
        </g>
    </g>
</svg>